<?xml version="1.0" standalone="no"?>
<!DOCTYPE svg PUBLIC "-//W3C//DTD SVG 20010904//EN"
 "http://www.w3.org/TR/2001/REC-SVG-20010904/DTD/svg10.dtd">
<svg version="1.0" xmlns="http://www.w3.org/2000/svg"
 width="618.000000pt" height="618.000000pt" viewBox="0 0 618.000000 618.000000"
 preserveAspectRatio="xMidYMid meet">
<metadata>
Created by potrace 1.11, written by Peter Selinger 2001-2013
</metadata>
<g transform="translate(0.000000,618.000000) scale(0.100000,-0.100000)"
fill="#000000" stroke="none">
<path d="M3089 6160 c-1 -3 -3 -202 -4 -442 -1 -241 -4 -440 -7 -443 -3 -3
-45 -7 -94 -9 -109 -6 -218 -19 -329 -41 -11 -2 -33 -7 -50 -10 -16 -3 -64
-15 -105 -27 -785 -217 -1394 -870 -1556 -1667 -35 -171 -39 -219 -39 -431 0
-162 5 -249 19 -340 64 -420 264 -837 548 -1143 l63 -68 225 225 c124 124 225
229 225 235 0 5 -16 26 -35 48 -189 207 -350 537 -377 772 -3 25 -8 62 -12 81
-12 59 -13 260 -1 355 14 113 14 114 39 210 132 508 513 913 1011 1075 232 76
231 76 1393 84 335 2 610 6 613 9 2 2 -317 325 -710 718 -797 797 -815 815
-817 809z"/>
<path d="M4624 4606 c-7 -6 -85 -84 -175 -173 -280 -277 -275 -271 -257 -285
30 -25 124 -144 179 -228 138 -209 217 -436 244 -695 6 -57 6 -257 1 -297 -44
-317 -132 -540 -306 -773 -141 -188 -381 -382 -577 -466 -26 -11 -61 -27 -78
-34 -81 -37 -278 -87 -395 -100 -60 -7 -420 -12 -1207 -17 -277 -1 -503 -5
-503 -8 0 -7 1524 -1530 1532 -1530 3 0 6 198 6 440 -1 242 2 443 6 447 3 4
34 7 69 9 66 2 195 13 230 20 12 2 39 6 61 10 22 3 43 7 46 9 3 2 24 6 46 9
61 10 228 59 329 98 212 83 423 206 600 351 169 138 369 370 483 558 156 260
263 566 296 849 3 25 8 68 11 95 7 54 7 322 0 369 -2 16 -6 59 -10 94 -3 36
-8 68 -10 72 -2 3 -6 26 -10 50 -48 327 -255 760 -487 1021 -107 120 -108 122
-124 105z"/>
<path d="M2920 4472 c-64 -7 -230 -46 -294 -69 -404 -144 -732 -475 -865 -872
-26 -77 -51 -184 -65 -281 -7 -46 -7 -295 -1 -340 49 -312 178 -586 372 -789
l23 -23 32 29 c18 16 239 233 491 483 252 250 461 456 465 457 4 2 7 -309 7
-690 l0 -692 41 -1 c39 -1 106 6 204 20 251 37 532 182 731 377 312 305 466
734 415 1159 -34 289 -151 550 -347 773 l-50 57 -481 -477 c-264 -263 -486
-484 -493 -490 -10 -10 -14 -10 -17 0 -2 6 -3 319 -2 695 l1 683 -71 -3 c-39
-2 -82 -4 -96 -6z"/>
</g>
</svg>
